<svg width="960" height="240" viewBox="0 0 960 240" xmlns="http://www.w3.org/2000/svg">
  <rect width="960" height="240" fill="none"/>
  <!-- Icon group -->
  <g transform="translate(40,40)">
    <!-- Pier (stylized) -->
    <rect x="0" y="110" width="120" height="16" rx="8" fill="#263238" opacity="0.9"/>
    <rect x="24" y="80" width="16" height="60" rx="8" fill="#263238" />
    <rect x="64" y="90" width="16" height="50" rx="8" fill="#263238" />
    <rect x="96" y="70" width="16" height="70" rx="8" fill="#263238" />
    <!-- Wave -->
    <path d="M10,150 C60,120 100,180 160,150 C210,120 250,180 310,150" stroke="#0B3C5D" stroke-width="10" fill="none" stroke-linecap="round"/>
    <!-- Sensor dot -->
    <circle cx="155" cy="60" r="10" fill="#FF6F61"/>
    <circle cx="155" cy="60" r="18" fill="none" stroke="#FF6F61" stroke-width="2" opacity="0.5"/>
    <!-- Sonar arcs -->
    <path d="M170,60 a26,26 0 1,0 0.1,0" fill="none" stroke="#1CA6A3" stroke-width="3" opacity="0.7"/>
    <path d="M185,60 a40,40 0 1,0 0.1,0" fill="none" stroke="#1CA6A3" stroke-width="2" opacity="0.4"/>
  </g>
  <!-- Wordmark -->
  <g transform="translate(380,95)">
    <text x="0" y="0" font-family="Poppins, Inter, Arial, sans-serif" font-size="56" font-weight="700" fill="#0B3C5D">BluePort</text>
    <text x="275" y="0" font-family="Poppins, Inter, Arial, sans-serif" font-size="56" font-weight="700" fill="#1CA6A3">AI</text>
    <text x="0" y="44" font-family="Inter, Arial, sans-serif" font-size="18" fill="#263238">Environmental Intelligence for Ports and Coastal Waters</text>
  </g>
</svg>